<?xml version="1.0" encoding="UTF-8"?>
<svg width="50px" height="49px" viewBox="0 0 50 49" version="1.1" xmlns="http://www.w3.org/2000/svg" xmlns:xlink="http://www.w3.org/1999/xlink">
    <!-- Generator: Sketch 64 (93537) - https://sketch.com -->
    <title>Group 3</title>
    <desc>Created with Sketch.</desc>
    <g id="Page-1" stroke="none" stroke-width="1" fill="none" fill-rule="evenodd">
        <g id="Group-273" transform="translate(-78.000000, -0.450000)">
            <g id="Group-3" transform="translate(78.727000, 0.676000)">
                <polygon id="Fill-272" fill="#00A3DA" points="1.42108547e-14 48.472 48.473 48.472 48.473 0 1.42108547e-14 0"></polygon>
                <path d="M7.9063,5.471 L27.3413,5.471 C35.2083,5.471 40.5293,7.785 40.5293,14.779 C40.5293,18.459 38.5053,21.036 34.9193,22.614 C39.9513,23.928 42.4963,27.451 42.4963,32.131 C42.4963,39.755 35.3823,43.016 27.9203,43.016 L7.9063,43.016 L7.9063,5.471 Z M16.9883,20.667 L26.1843,20.667 C29.3653,20.667 31.7373,19.353 31.7373,16.199 C31.7373,12.622 28.7313,11.886 25.4903,11.886 L16.9883,11.886 L16.9883,20.667 Z M16.9883,36.6 L26.7053,36.6 C30.2913,36.6 33.4153,35.549 33.4153,31.658 C33.4153,27.82 30.7543,26.294 26.8793,26.294 L16.9883,26.294 L16.9883,36.6 Z" id="Fill-274" fill="#FFFFFE"></path>
            </g>
        </g>
    </g>
</svg>