<?xml version="1.0" encoding="UTF-8"?>
<svg width="50px" height="50px" viewBox="0 0 50 50" version="1.1" xmlns="http://www.w3.org/2000/svg" xmlns:xlink="http://www.w3.org/1999/xlink">
    <!-- Generator: Sketch 64 (93537) - https://sketch.com -->
    <title>Group 2</title>
    <desc>Created with Sketch.</desc>
    <g id="Page-1" stroke="none" stroke-width="1" fill="none" fill-rule="evenodd">
        <g id="Group-2" transform="translate(0.668000, 0.827000)">
            <polygon id="Fill-276" fill="#EB8B2D" points="0 48.472 48.473 48.472 48.473 0 0 0"></polygon>
            <path d="M34.7719,18.0907 C34.1939,14.3577 30.2589,11.5177 25.7479,11.5177 C17.5919,11.5177 14.5259,17.8277 14.5259,24.4017 C14.5259,30.6587 17.5919,36.9687 25.7479,36.9687 C31.2999,36.9687 34.4239,33.4977 35.1179,28.5547 L43.9109,28.5547 C42.9849,37.9147 35.8709,43.9087 25.7479,43.9087 C12.9639,43.9087 5.4449,35.2327 5.4449,24.4017 C5.4449,13.2537 12.9639,4.5767 25.7479,4.5767 C34.8299,4.5767 42.4639,9.4147 43.5629,18.0907 L34.7719,18.0907 Z" id="Fill-278" fill="#FFFFFE"></path>
        </g>
    </g>
</svg>