<?xml version="1.0" encoding="UTF-8"?>
<svg width="119px" height="50px" viewBox="0 0 119 50" version="1.1" xmlns="http://www.w3.org/2000/svg" xmlns:xlink="http://www.w3.org/1999/xlink">
    <!-- Generator: Sketch 64 (93537) - https://sketch.com -->
    <title>Group 7</title>
    <desc>Created with Sketch.</desc>
    <defs>
        <polygon id="path-1" points="0.545 0.011 70.2227 0.011 70.2227 48.483 0.545 48.483"></polygon>
    </defs>
    <g id="Page-1" stroke="none" stroke-width="1" fill="none" fill-rule="evenodd">
        <g id="Group-7" transform="translate(0.000000, 0.550000)">
            <g id="Group-176">
                <g id="Group-167">
                    <mask id="mask-2" fill="white">
                        <use xlink:href="#path-1"></use>
                    </mask>
                    <g id="Clip-166"></g>
                    <path d="M70.2227,0.0103 L12.2807,0.0103 C5.7987,0.0103 0.5447,5.2643 0.5447,11.7463 L0.5447,36.7463 C0.5447,43.2273 5.7987,48.4833 12.2807,48.4833 L70.2227,48.4833 L70.2227,0.0103 Z" id="Fill-165" fill="#7E7E6B" mask="url(#mask-2)"></path>
                </g>
                <path d="M4.2656,12.9731 L4.2656,15.9631 L1.9936,15.9631 L1.9936,18.9981 L4.2656,18.9981 L4.2656,26.5241 C4.2656,28.6231 4.6446,30.1041 5.5386,31.0221 C6.3026,31.8341 7.5176,32.3381 9.0256,32.3381 C10.2756,32.3381 11.3556,32.1371 11.9516,31.9101 L11.8986,28.8601 C11.4416,28.9871 11.0296,29.0061 10.2986,29.0061 C8.7676,29.0061 8.2306,28.0341 8.2306,26.0531 L8.2306,18.9981 L12.0826,18.9981 L12.0826,15.9631 L8.2306,15.9631 L8.2306,11.8481 L4.2656,12.9731 Z" id="Fill-168" fill="#FFFFFE"></path>
                <path d="M15.1484,31.9673 L19.1894,31.9673 L19.1894,23.6743 L19.2794,22.4443 C19.6564,20.5903 21.0054,19.3753 22.9004,19.3753 L24.1154,19.4833 L24.1154,15.7053 L23.1704,15.6043 C21.4334,15.6043 19.5484,16.7443 18.7524,19.0003 L18.6694,19.0003 L18.4934,15.9633 L15.0074,15.9633 C15.1164,17.3913 15.1484,18.9553 15.1484,21.1173 L15.1484,31.9673 Z" id="Fill-170" fill="#FFFFFE"></path>
                <path d="M35.0313,26.3481 L34.9303,27.2371 C34.5373,28.3951 33.3983,29.4481 31.7543,29.4481 C30.4533,29.4481 29.4413,28.7211 29.4413,27.1451 C29.4413,24.6981 32.1743,24.1181 35.0313,24.1531 L35.0313,26.3481 Z M38.9863,22.3771 C38.9863,18.8581 37.4963,15.6081 32.3733,15.6081 C29.8413,15.6081 27.7813,16.2931 26.5863,17.0061 L27.3713,19.6451 C28.4533,18.9521 30.0953,18.4611 31.6763,18.4611 C34.5043,18.4611 34.9303,20.2051 34.9303,21.2561 L34.9303,21.5221 C29.0333,21.4791 25.4353,23.5491 25.4353,27.5611 C25.4353,30.0021 27.2533,32.3321 30.4533,32.3321 C32.5783,32.3321 34.2523,31.4441 35.1893,30.2001 L35.3063,30.2001 L35.5823,31.9731 L39.2463,31.9731 C39.0443,30.9911 38.9863,29.5731 38.9863,28.1351 L38.9863,22.3771 Z" id="Fill-172" fill="#FFFFFE"></path>
                <path d="M43.2432,31.9673 L47.2002,31.9673 L47.2002,22.5103 L47.4022,21.1513 C47.8022,20.0723 48.8082,18.8973 50.3162,18.8973 C52.1942,18.8973 53.0992,20.4813 53.0992,22.7013 L53.0992,31.9673 L57.0392,31.9673 L57.0392,22.3773 L57.2392,21.0473 C57.6672,19.8953 58.6722,18.8973 60.0622,18.8973 C62.0062,18.8973 62.9292,20.4813 62.9292,23.1293 L62.9292,31.9673 L66.8752,31.9673 L66.8752,22.5413 C66.8752,17.4063 64.1692,15.6043 61.5372,15.6043 C60.1792,15.6043 59.1662,15.9283 58.2462,16.5673 C57.5232,17.0043 56.8702,17.6743 56.3252,18.5633 L56.2242,18.5633 C55.5542,16.7763 53.9102,15.6043 51.8012,15.6043 C49.0772,15.6043 47.6352,17.0763 46.8732,18.3363 L46.7612,18.3363 L46.5702,15.9633 L43.1362,15.9633 C43.1942,17.3283 43.2432,18.8973 43.2432,20.7423 L43.2432,31.9673 Z" id="Fill-174" fill="#FFFFFE"></path>
            </g>
            <polygon id="Fill-177" fill="#EB8B2D" points="70.225 48.483 118.696 48.483 118.696 0.01 70.225 0.01"></polygon>
            <path d="M104.2471,18.3306 C103.6691,14.5986 99.7351,11.7586 95.2241,11.7586 C87.0681,11.7586 84.0031,18.0686 84.0031,24.6406 C84.0031,30.8986 87.0681,37.2096 95.2241,37.2096 C100.7761,37.2096 103.9001,33.7386 104.5951,28.7956 L113.3861,28.7956 C112.4621,38.1546 105.3471,44.1486 95.2241,44.1486 C82.4401,44.1486 74.9211,35.4736 74.9211,24.6406 C74.9211,13.4946 82.4401,4.8166 95.2241,4.8166 C104.3061,4.8166 111.9401,9.6546 113.0401,18.3306 L104.2471,18.3306 Z" id="Fill-179" fill="#FFFFFE"></path>
        </g>
    </g>
</svg>