<?xml version="1.0" encoding="UTF-8"?>
<svg width="114px" height="49px" viewBox="0 0 114 49" version="1.1" xmlns="http://www.w3.org/2000/svg" xmlns:xlink="http://www.w3.org/1999/xlink">
    <!-- Generator: Sketch 64 (93537) - https://sketch.com -->
    <title>Slice</title>
    <desc>Created with Sketch.</desc>
    <defs>
        <polygon id="path-1" points="0 1191 841.89 1191 841.89 0.45 0 0.45"></polygon>
        <polygon id="path-3" points="0.15 0.592 67.4419 0.592 67.4419 49.0638 0.15 49.0638"></polygon>
        <polygon id="path-5" points="0 1191 841.89 1191 841.89 0.45 0 0.45"></polygon>
        <polygon id="path-7" points="0 1191 841.89 1191 841.89 0.45 0 0.45"></polygon>
        <polygon id="path-9" points="0 1191 841.89 1191 841.89 0.45 0 0.45"></polygon>
    </defs>
    <g id="Page-1" stroke="none" stroke-width="1" fill="none" fill-rule="evenodd">
        <g id="Group-34" transform="translate(-105.000000, -210.450000)"></g>
        <g id="Group-161" transform="translate(-136.000000, -234.450000)">
            <mask id="mask-2" fill="white">
                <use xlink:href="#path-1"></use>
            </mask>
            <g id="Clip-109"></g>
        </g>
        <g id="Group-203" transform="translate(0.000000, -0.450000)">
            <g id="Group-194">
                <mask id="mask-4" fill="white">
                    <use xlink:href="#path-3"></use>
                </mask>
                <g id="Clip-193"></g>
                <path d="M67.4419,0.5918 L11.4839,0.5918 C5.2249,0.5918 0.1499,5.8458 0.1499,12.3278 L0.1499,37.3278 C0.1499,43.8078 5.2249,49.0638 11.4839,49.0638 L67.4419,49.0638 L67.4419,0.5918 Z" id="Fill-192" fill="#7E7E6B" mask="url(#mask-4)"></path>
            </g>
            <path d="M3.7441,13.5542 L3.7441,16.5442 L1.5501,16.5442 L1.5501,19.5792 L3.7441,19.5792 L3.7441,27.1052 C3.7441,29.2042 4.1101,30.6852 4.9741,31.6032 C5.7111,32.4152 6.8851,32.9192 8.3411,32.9192 C9.5481,32.9192 10.5911,32.7182 11.1661,32.4912 L11.1151,29.4412 C10.6741,29.5682 10.2761,29.5872 9.5701,29.5872 C8.0921,29.5872 7.5731,28.6152 7.5731,26.6342 L7.5731,19.5792 L11.2931,19.5792 L11.2931,16.5442 L7.5731,16.5442 L7.5731,12.4292 L3.7441,13.5542 Z" id="Fill-195" fill="#FFFFFE"></path>
            <path d="M14.2539,32.5483 L18.1559,32.5483 L18.1559,24.2553 L18.2429,23.0253 C18.6079,21.1713 19.9089,19.9563 21.7399,19.9563 L22.9139,20.0643 L22.9139,16.2863 L22.0009,16.1853 C20.3239,16.1853 18.5019,17.3253 17.7339,19.5813 L17.6529,19.5813 L17.4839,16.5443 L14.1159,16.5443 C14.2219,17.9723 14.2539,19.5363 14.2539,21.6983 L14.2539,32.5483 Z" id="Fill-197" fill="#FFFFFE"></path>
            <path d="M33.4561,26.9292 L33.3571,27.8182 C32.9781,28.9762 31.8771,30.0292 30.2911,30.0292 C29.0341,30.0292 28.0561,29.3022 28.0561,27.7262 C28.0561,25.2792 30.6961,24.6992 33.4561,24.7342 L33.4561,26.9292 Z M37.2751,22.9582 C37.2751,19.4392 35.8361,16.1892 30.8891,16.1892 C28.4421,16.1892 26.4541,16.8742 25.3001,17.5872 L26.0581,20.2262 C27.1021,19.5332 28.6891,19.0422 30.2151,19.0422 C32.9461,19.0422 33.3571,20.7862 33.3571,21.8372 L33.3571,22.1032 C27.6631,22.0602 24.1881,24.1302 24.1881,28.1422 C24.1881,30.5832 25.9421,32.9132 29.0341,32.9132 C31.0871,32.9132 32.7031,32.0252 33.6061,30.7812 L33.7221,30.7812 L33.9871,32.5542 L37.5261,32.5542 C37.3301,31.5722 37.2751,30.1542 37.2751,28.7162 L37.2751,22.9582 Z" id="Fill-199" fill="#FFFFFE"></path>
            <path d="M41.3857,32.5483 L45.2067,32.5483 L45.2067,23.0913 L45.4037,21.7323 C45.7897,20.6533 46.7607,19.4783 48.2177,19.4783 C50.0307,19.4783 50.9057,21.0623 50.9057,23.2823 L50.9057,32.5483 L54.7097,32.5483 L54.7097,22.9583 L54.9027,21.6283 C55.3157,20.4763 56.2857,19.4783 57.6297,19.4783 C59.5067,19.4783 60.3967,21.0623 60.3967,23.7103 L60.3967,32.5483 L64.2097,32.5483 L64.2097,23.1223 C64.2097,17.9883 61.5937,16.1853 59.0527,16.1853 C57.7407,16.1853 56.7637,16.5093 55.8757,17.1483 C55.1777,17.5853 54.5457,18.2553 54.0197,19.1443 L53.9227,19.1443 C53.2747,17.3573 51.6887,16.1853 49.6497,16.1853 C47.0197,16.1853 45.6277,17.6573 44.8917,18.9173 L44.7837,18.9173 L44.5997,16.5443 L41.2817,16.5443 C41.3377,17.9093 41.3857,19.4783 41.3857,21.3233 L41.3857,32.5483 Z" id="Fill-201" fill="#FFFFFE"></path>
        </g>
        <g id="Group-207" transform="translate(67.000000, -0.450000)">
            <polygon id="Fill-204" fill="#D8232A" points="0.41 49.064 47.222 49.064 47.222 0.592 0.41 0.592"></polygon>
            <path d="M19.4316,6.0625 L28.4256,6.0625 L43.3396,43.6065 L34.2346,43.6065 L31.2166,35.2475 L16.3026,35.2475 L13.1756,43.6065 L4.2926,43.6065 L19.4316,6.0625 Z M18.5936,29.0935 L28.9276,29.0935 L23.9006,15.3175 L23.7886,15.3175 L18.5936,29.0935 Z" id="Fill-206" fill="#FFFFFE"></path>
        </g>
        <g id="Group-260" transform="translate(-20.000000, -200.450000)"></g>
        <g id="Group-347" transform="translate(-136.000000, -234.450000)">
            <g id="Group-344">
                <mask id="mask-6" fill="white">
                    <use xlink:href="#path-5"></use>
                </mask>
                <g id="Clip-339"></g>
            </g>
        </g>
        <g id="Group-424" transform="translate(-136.000000, -234.450000)">
            <mask id="mask-8" fill="white">
                <use xlink:href="#path-7"></use>
            </mask>
            <g id="Clip-423"></g>
        </g>
        <g id="Group-599" transform="translate(-136.000000, -234.450000)">
            <mask id="mask-10" fill="white">
                <use xlink:href="#path-9"></use>
            </mask>
            <g id="Clip-580"></g>
        </g>
    </g>
</svg>