<?xml version="1.0" encoding="UTF-8"?>
<svg width="115px" height="50px" viewBox="0 0 115 50" version="1.1" xmlns="http://www.w3.org/2000/svg" xmlns:xlink="http://www.w3.org/1999/xlink">
    <!-- Generator: Sketch 64 (93537) - https://sketch.com -->
    <title>Group 8</title>
    <desc>Created with Sketch.</desc>
    <defs>
        <polygon id="path-1" points="0.4434 0.125 67.7344 0.125 67.7344 48.597 0.4434 48.597"></polygon>
    </defs>
    <g id="Page-1" stroke="none" stroke-width="1" fill="none" fill-rule="evenodd">
        <g id="Group-8" transform="translate(0.000000, 0.550000)">
            <g id="Group-46">
                <g id="Group-37">
                    <mask id="mask-2" fill="white">
                        <use xlink:href="#path-1"></use>
                    </mask>
                    <g id="Clip-36"></g>
                    <path d="M67.7344,0.1245 L11.7754,0.1245 C5.5174,0.1245 0.4434,5.3785 0.4434,11.8605 L0.4434,36.8615 C0.4434,43.3425 5.5174,48.5975 11.7754,48.5975 L67.7344,48.5975 L67.7344,0.1245 Z" id="Fill-35" fill="#7E7E6B" mask="url(#mask-2)"></path>
                </g>
                <path d="M4.0352,13.0874 L4.0352,16.0784 L1.8422,16.0784 L1.8422,19.1134 L4.0352,19.1134 L4.0352,26.6384 C4.0352,28.7384 4.4022,30.2184 5.2652,31.1374 C6.0042,31.9484 7.1762,32.4524 8.6332,32.4524 C9.8402,32.4524 10.8832,32.2514 11.4592,32.0244 L11.4082,28.9744 C10.9672,29.1014 10.5682,29.1214 9.8632,29.1214 C8.3852,29.1214 7.8652,28.1484 7.8652,26.1684 L7.8652,19.1134 L11.5862,19.1134 L11.5862,16.0784 L7.8652,16.0784 L7.8652,11.9624 L4.0352,13.0874 Z" id="Fill-38" fill="#FFFFFE"></path>
                <path d="M14.5469,32.0825 L18.4489,32.0825 L18.4489,23.7895 L18.5349,22.5595 C18.9009,20.7045 20.2009,19.4905 22.0329,19.4905 L23.2049,19.5985 L23.2049,15.8205 L22.2929,15.7185 C20.6149,15.7185 18.7949,16.8585 18.0259,19.1145 L17.9449,19.1145 L17.7759,16.0785 L14.4099,16.0785 C14.5159,17.5065 14.5469,19.0695 14.5469,21.2325 L14.5469,32.0825 Z" id="Fill-40" fill="#FFFFFE"></path>
                <path d="M33.748,26.4634 L33.65,27.3514 C33.271,28.5094 32.172,29.5624 30.582,29.5624 C29.326,29.5624 28.35,28.8354 28.35,27.2594 C28.35,24.8124 30.99,24.2324 33.748,24.2674 L33.748,26.4634 Z M37.568,22.4914 C37.568,18.9724 36.129,15.7224 31.182,15.7224 C28.734,15.7224 26.746,16.4084 25.592,17.1214 L26.35,19.7594 C27.394,19.0654 28.982,18.5754 30.508,18.5754 C33.238,18.5754 33.65,20.3204 33.65,21.3704 L33.65,21.6374 C27.955,21.5934 24.48,23.6644 24.48,27.6764 C24.48,30.1164 26.236,32.4464 29.326,32.4464 C31.379,32.4464 32.996,31.5594 33.9,30.3154 L34.014,30.3154 L34.279,32.0884 L37.818,32.0884 C37.623,31.1054 37.568,29.6884 37.568,28.2504 L37.568,22.4914 Z" id="Fill-42" fill="#FFFFFE"></path>
                <path d="M41.6777,32.0825 L45.4997,32.0825 L45.4997,22.6255 L45.6957,21.2655 C46.0817,20.1865 47.0527,19.0115 48.5097,19.0115 C50.3227,19.0115 51.1977,20.5955 51.1977,22.8165 L51.1977,32.0825 L55.0017,32.0825 L55.0017,22.4915 L55.1957,21.1615 C55.6077,20.0105 56.5777,19.0115 57.9217,19.0115 C59.7987,19.0115 60.6917,20.5955 60.6917,23.2445 L60.6917,32.0825 L64.5017,32.0825 L64.5017,22.6565 C64.5017,17.5215 61.8867,15.7185 59.3457,15.7185 C58.0347,15.7185 57.0567,16.0425 56.1677,16.6825 C55.4707,17.1185 54.8377,17.7885 54.3127,18.6785 L54.2147,18.6785 C53.5687,16.8905 51.9807,15.7185 49.9437,15.7185 C47.3127,15.7185 45.9197,17.1915 45.1837,18.4505 L45.0757,18.4505 L44.8927,16.0785 L41.5757,16.0785 C41.6307,17.4435 41.6777,19.0115 41.6777,20.8565 L41.6777,32.0825 Z" id="Fill-44" fill="#FFFFFE"></path>
            </g>
            <polygon id="Fill-47" fill="#009F4A" points="67.736 48.597 114.547 48.597 114.547 0.125 67.736 0.125"></polygon>
            <path d="M74.3848,5.5963 L91.5898,5.5963 C101.9238,5.5963 109.6898,11.6973 109.6898,24.1583 C109.6898,35.0433 103.7678,43.1413 91.5898,43.1413 L74.3848,43.1413 L74.3848,5.5963 Z M83.1548,36.2003 L90.9768,36.2003 C96.0588,36.2003 100.9198,33.2553 100.9198,24.9483 C100.9198,17.3753 98.1248,12.5373 89.4118,12.5373 L83.1548,12.5373 L83.1548,36.2003 Z" id="Fill-49" fill="#FFFFFE"></path>
        </g>
    </g>
</svg>