<?xml version="1.0" encoding="UTF-8"?>
<svg width="120px" height="50px" viewBox="0 0 120 50" version="1.1" xmlns="http://www.w3.org/2000/svg" xmlns:xlink="http://www.w3.org/1999/xlink">
    <!-- Generator: Sketch 64 (93537) - https://sketch.com -->
    <title>Group 5</title>
    <desc>Created with Sketch.</desc>
    <defs>
        <polygon id="path-1" points="0.9529 0.104 70.6299 0.104 70.6299 48.5765 0.9529 48.5765"></polygon>
    </defs>
    <g id="Page-1" stroke="none" stroke-width="1" fill="none" fill-rule="evenodd">
        <g id="Group-5" transform="translate(-0.369000, 0.104000)">
            <g id="Group-251" transform="translate(0.369000, 0.446000)">
                <g id="Group-242">
                    <mask id="mask-2" fill="white">
                        <use xlink:href="#path-1"></use>
                    </mask>
                    <g id="Clip-241"></g>
                    <path d="M70.6299,0.1035 L12.6879,0.1035 C6.2069,0.1035 0.9529,5.3575 0.9529,11.8395 L0.9529,36.8405 C0.9529,43.3215 6.2069,48.5765 12.6879,48.5765 L70.6299,48.5765 L70.6299,0.1035 Z" id="Fill-240" fill="#7E7E6B" mask="url(#mask-2)"></path>
                </g>
                <path d="M4.6724,13.0664 L4.6724,16.0574 L2.4014,16.0574 L2.4014,19.0924 L4.6724,19.0924 L4.6724,26.6174 C4.6724,28.7174 5.0514,30.1974 5.9464,31.1164 C6.7094,31.9274 7.9244,32.4314 9.4334,32.4314 C10.6834,32.4314 11.7624,32.2304 12.3594,32.0034 L12.3064,28.9534 C11.8484,29.0804 11.4364,29.1004 10.7064,29.1004 C9.1744,29.1004 8.6374,28.1274 8.6374,26.1474 L8.6374,19.0924 L12.4904,19.0924 L12.4904,16.0574 L8.6374,16.0574 L8.6374,11.9414 L4.6724,13.0664 Z" id="Fill-243" fill="#FFFFFE"></path>
                <path d="M15.5562,32.0615 L19.5962,32.0615 L19.5962,23.7685 L19.6862,22.5385 C20.0632,20.6835 21.4122,19.4695 23.3082,19.4695 L24.5222,19.5775 L24.5222,15.7995 L23.5772,15.6975 C21.8402,15.6975 19.9552,16.8375 19.1592,19.0935 L19.0762,19.0935 L18.9002,16.0575 L15.4142,16.0575 C15.5232,17.4855 15.5562,19.0485 15.5562,21.2115 L15.5562,32.0615 Z" id="Fill-245" fill="#FFFFFE"></path>
                <path d="M35.438,26.4424 L35.338,27.3304 C34.944,28.4884 33.805,29.5414 32.161,29.5414 C30.861,29.5414 29.848,28.8144 29.848,27.2384 C29.848,24.7914 32.582,24.2114 35.438,24.2464 L35.438,26.4424 Z M39.393,22.4704 C39.393,18.9514 37.903,15.7014 32.78,15.7014 C30.248,15.7014 28.188,16.3874 26.993,17.1004 L27.778,19.7384 C28.861,19.0444 30.503,18.5544 32.083,18.5544 C34.911,18.5544 35.338,20.2994 35.338,21.3494 L35.338,21.6164 C29.44,21.5724 25.843,23.6434 25.843,27.6554 C25.843,30.0954 27.66,32.4254 30.861,32.4254 C32.985,32.4254 34.659,31.5384 35.596,30.2944 L35.714,30.2944 L35.99,32.0674 L39.653,32.0674 C39.451,31.0844 39.393,29.6674 39.393,28.2294 L39.393,22.4704 Z" id="Fill-247" fill="#FFFFFE"></path>
                <path d="M43.6504,32.0615 L47.6074,32.0615 L47.6074,22.6045 L47.8094,21.2445 C48.2104,20.1655 49.2154,18.9905 50.7244,18.9905 C52.6014,18.9905 53.5074,20.5745 53.5074,22.7955 L53.5074,32.0615 L57.4464,32.0615 L57.4464,22.4705 L57.6464,21.1405 C58.0744,19.9895 59.0794,18.9905 60.4694,18.9905 C62.4134,18.9905 63.3374,20.5745 63.3374,23.2235 L63.3374,32.0615 L67.2824,32.0615 L67.2824,22.6355 C67.2824,17.5005 64.5764,15.6975 61.9444,15.6975 C60.5864,15.6975 59.5734,16.0215 58.6534,16.6615 C57.9304,17.0975 57.2774,17.7675 56.7324,18.6575 L56.6324,18.6575 C55.9614,16.8695 54.3174,15.6975 52.2074,15.6975 C49.4844,15.6975 48.0424,17.1705 47.2804,18.4295 L47.1694,18.4295 L46.9774,16.0575 L43.5434,16.0575 C43.6014,17.4225 43.6504,18.9905 43.6504,20.8355 L43.6504,32.0615 Z" id="Fill-249" fill="#FFFFFE"></path>
            </g>
            <polygon id="Fill-252" fill="#84BF41" points="71 49.022 119.471 49.022 119.471 0.55 71 0.55"></polygon>
            <polygon id="Fill-254" fill="#FFFFFE" points="80.4364 6.0212 109.4734 6.0212 109.4734 12.9622 89.5184 12.9622 89.5184 21.6382 106.8134 21.6382 106.8134 28.0542 89.5184 28.0542 89.5184 43.5662 80.4364 43.5662"></polygon>
        </g>
    </g>
</svg>