<?xml version="1.0" encoding="UTF-8"?>
<svg width="76px" height="53px" viewBox="0 0 76 53" version="1.1" xmlns="http://www.w3.org/2000/svg" xmlns:xlink="http://www.w3.org/1999/xlink">
    <!-- Generator: Sketch 64 (93537) - https://sketch.com -->
    <title>Slice</title>
    <desc>Created with Sketch.</desc>
    <defs>
        <polygon id="path-1" points="0 1191 841.89 1191 841.89 0.45 0 0.45"></polygon>
        <polygon id="path-3" points="0 1191 841.89 1191 841.89 0.45 0 0.45"></polygon>
        <polygon id="path-5" points="0 1191 841.89 1191 841.89 0.45 0 0.45"></polygon>
        <polygon id="path-7" points="0 1191 841.89 1191 841.89 0.45 0 0.45"></polygon>
    </defs>
    <g id="Page-1" stroke="none" stroke-width="1" fill="none" fill-rule="evenodd">
        <g id="Group-34" transform="translate(-11.000000, -208.450000)"></g>
        <g id="Group-161" transform="translate(-42.000000, -232.450000)">
            <mask id="mask-2" fill="white">
                <use xlink:href="#path-1"></use>
            </mask>
            <g id="Clip-109"></g>
        </g>
        <g id="Group-191" transform="translate(0.000000, -0.450000)">
            <path d="M75.1982,52.9258 L75.1852,52.9258 C75.1852,52.9258 75.1982,52.9258 75.1852,52.9258 L12.5582,52.9258 C5.8482,52.9258 0.4022,47.4718 0.4022,40.7458 L0.4022,12.9238 C0.4022,6.1978 5.8482,0.7438 12.5582,0.7438 L75.1852,0.7438 L75.1982,52.9258 Z" id="Fill-181" fill="#7E7E6B"></path>
            <path d="M4.3857,14.7559 L4.3857,17.9739 L1.9427,17.9739 L1.9427,21.2189 L4.3857,21.2189 L4.3857,29.3199 C4.3857,31.5779 4.7867,33.1639 5.7587,34.1479 C6.5737,35.0329 7.8717,35.5729 9.5067,35.5729 C10.8397,35.5729 12.0117,35.3629 12.6477,35.1099 L12.5857,31.8399 C12.0927,31.9609 11.6547,31.9979 10.8797,31.9979 C9.2267,31.9979 8.6497,30.9489 8.6497,28.8229 L8.6497,21.2189 L12.7887,21.2189 L12.7887,17.9739 L8.6497,17.9739 L8.6497,13.5529 L4.3857,14.7559 Z" id="Fill-183" fill="#FFFFFE"></path>
            <path d="M16.084,35.1719 L20.431,35.1719 L20.431,26.2539 C20.431,25.7809 20.462,25.3179 20.529,24.9369 C20.928,22.9429 22.378,21.6479 24.41,21.6479 C24.944,21.6479 25.342,21.6899 25.722,21.7559 L25.722,17.6949 C25.382,17.6249 25.12,17.5939 24.704,17.5939 C22.837,17.5939 20.811,18.8219 19.953,21.2189 L19.872,21.2189 L19.675,17.9739 L15.937,17.9739 C16.047,19.4939 16.084,21.1819 16.084,23.5179 L16.084,35.1719 Z" id="Fill-185" fill="#FFFFFE"></path>
            <path d="M41.6982,24.8711 C41.6982,21.0801 40.0952,17.5941 34.5972,17.5941 C31.8762,17.5941 29.6512,18.3311 28.3682,19.0941 L29.2202,21.9321 C30.3832,21.1761 32.1532,20.6541 33.8412,20.6541 C36.8862,20.6541 37.3512,22.5361 37.3512,23.6491 L37.3512,23.9491 C30.9942,23.9061 27.1382,26.1271 27.1382,30.4461 C27.1382,33.0611 29.0842,35.5731 32.5392,35.5731 C34.8092,35.5731 36.6112,34.6071 37.6262,33.2711 L37.7442,33.2711 L38.0432,35.1721 L41.9792,35.1721 C41.7642,34.1291 41.6982,32.6021 41.6982,31.0441 L41.6982,24.8711 Z M37.4502,29.1351 C37.4502,29.4521 37.4502,29.7761 37.3512,30.0881 C36.9302,31.3251 35.6922,32.4701 33.9222,32.4701 C32.5392,32.4701 31.4472,31.6801 31.4472,29.9861 C31.4472,27.3671 34.3812,26.7441 37.4502,26.7741 L37.4502,29.1351 Z" id="Fill-187" fill="#FFFFFE"></path>
            <path d="M46.2861,35.1719 L50.5311,35.1719 L50.5311,25.0069 C50.5311,24.5039 50.6021,24.0259 50.7401,23.5609 C51.1731,22.3909 52.2681,21.1229 53.8841,21.1229 C55.9011,21.1229 56.8611,22.8229 56.8611,25.2169 L56.8611,35.1719 L61.1061,35.1719 L61.1061,24.8709 C61.1061,24.3569 61.1741,23.8039 61.3221,23.4279 C61.7721,22.1879 62.8551,21.1229 64.3521,21.1229 C66.4431,21.1229 67.4361,22.8229 67.4361,25.6739 L67.4361,35.1719 L71.6691,35.1719 L71.6691,25.0379 C71.6691,19.5279 68.7721,17.5939 65.9401,17.5939 C64.4841,17.5939 63.3891,17.9369 62.4011,18.6179 C61.6211,19.0939 60.9331,19.8059 60.3221,20.7689 L60.2391,20.7689 C59.5151,18.8529 57.7401,17.5939 55.4731,17.5939 C52.5491,17.5939 50.9931,19.1699 50.1791,20.5189 L50.0651,20.5189 L49.8611,17.9739 L46.1531,17.9739 C46.2251,19.4509 46.2861,21.1229 46.2861,23.1039 L46.2861,35.1719 Z" id="Fill-189" fill="#FFFFFE"></path>
        </g>
        <g id="Group-260" transform="translate(74.000000, -198.450000)"></g>
        <g id="Group-347" transform="translate(-42.000000, -232.450000)">
            <g id="Group-344">
                <mask id="mask-4" fill="white">
                    <use xlink:href="#path-3"></use>
                </mask>
                <g id="Clip-339"></g>
            </g>
        </g>
        <g id="Group-424" transform="translate(-42.000000, -232.450000)">
            <mask id="mask-6" fill="white">
                <use xlink:href="#path-5"></use>
            </mask>
            <g id="Clip-423"></g>
        </g>
        <g id="Group-599" transform="translate(-42.000000, -232.450000)">
            <mask id="mask-8" fill="white">
                <use xlink:href="#path-7"></use>
            </mask>
            <g id="Clip-580"></g>
        </g>
    </g>
</svg>