<?xml version="1.0" encoding="UTF-8"?>
<svg width="119px" height="50px" viewBox="0 0 119 50" version="1.1" xmlns="http://www.w3.org/2000/svg" xmlns:xlink="http://www.w3.org/1999/xlink">
    <!-- Generator: Sketch 64 (93537) - https://sketch.com -->
    <title>Group 6</title>
    <desc>Created with Sketch.</desc>
    <defs>
        <polygon id="path-1" points="0.8123 0.147 70.4893 0.147 70.4893 48.619 0.8123 48.619"></polygon>
    </defs>
    <g id="Page-1" stroke="none" stroke-width="1" fill="none" fill-rule="evenodd">
        <g id="Group-6" transform="translate(0.000000, 0.550000)">
            <g id="Group-219">
                <g id="Group-210">
                    <mask id="mask-2" fill="white">
                        <use xlink:href="#path-1"></use>
                    </mask>
                    <g id="Clip-209"></g>
                    <path d="M70.4893,0.1465 L12.5473,0.1465 C6.0663,0.1465 0.8123,5.4005 0.8123,11.8825 L0.8123,36.8835 C0.8123,43.3645 6.0663,48.6195 12.5473,48.6195 L70.4893,48.6195 L70.4893,0.1465 Z" id="Fill-208" fill="#7E7E6B" mask="url(#mask-2)"></path>
                </g>
                <path d="M4.5317,13.1094 L4.5317,16.1004 L2.2607,16.1004 L2.2607,19.1354 L4.5317,19.1354 L4.5317,26.6604 C4.5317,28.7604 4.9107,30.2404 5.8057,31.1594 C6.5687,31.9704 7.7837,32.4744 9.2927,32.4744 C10.5427,32.4744 11.6217,32.2734 12.2187,32.0464 L12.1657,28.9964 C11.7077,29.1234 11.2957,29.1434 10.5657,29.1434 C9.0337,29.1434 8.4967,28.1694 8.4967,26.1904 L8.4967,19.1354 L12.3497,19.1354 L12.3497,16.1004 L8.4967,16.1004 L8.4967,11.9844 L4.5317,13.1094 Z" id="Fill-211" fill="#FFFFFE"></path>
                <path d="M15.4155,32.1046 L19.4555,32.1046 L19.4555,23.8116 L19.5455,22.5816 C19.9225,20.7266 21.2715,19.5126 23.1675,19.5126 L24.3815,19.6206 L24.3815,15.8426 L23.4365,15.7406 C21.6995,15.7406 19.8145,16.8806 19.0185,19.1366 L18.9355,19.1366 L18.7595,16.1006 L15.2735,16.1006 C15.3825,17.5286 15.4155,19.0916 15.4155,21.2546 L15.4155,32.1046 Z" id="Fill-213" fill="#FFFFFE"></path>
                <path d="M35.2974,26.4854 L35.1974,27.3734 C34.8034,28.5314 33.6644,29.5844 32.0204,29.5844 C30.7204,29.5844 29.7074,28.8574 29.7074,27.2814 C29.7074,24.8344 32.4414,24.2554 35.2974,24.2894 L35.2974,26.4854 Z M39.2524,22.5134 C39.2524,18.9944 37.7624,15.7444 32.6394,15.7444 C30.1074,15.7444 28.0474,16.4304 26.8524,17.1434 L27.6374,19.7814 C28.7204,19.0884 30.3624,18.5974 31.9424,18.5974 C34.7704,18.5974 35.1974,20.3424 35.1974,21.3924 L35.1974,21.6594 C29.2994,21.6154 25.7024,23.6864 25.7024,27.6984 C25.7024,30.1384 27.5194,32.4684 30.7204,32.4684 C32.8444,32.4684 34.5184,31.5814 35.4554,30.3374 L35.5734,30.3374 L35.8494,32.1104 L39.5124,32.1104 C39.3104,31.1274 39.2524,29.7104 39.2524,28.2724 L39.2524,22.5134 Z" id="Fill-215" fill="#FFFFFE"></path>
                <path d="M43.5098,32.1046 L47.4658,32.1046 L47.4658,22.6476 L47.6688,21.2876 C48.0698,20.2086 49.0748,19.0336 50.5838,19.0336 C52.4608,19.0336 53.3668,20.6176 53.3668,22.8386 L53.3668,32.1046 L57.3058,32.1046 L57.3058,22.5136 L57.5058,21.1836 C57.9338,20.0326 58.9388,19.0336 60.3288,19.0336 C62.2728,19.0336 63.1948,20.6176 63.1948,23.2666 L63.1948,32.1046 L67.1418,32.1046 L67.1418,22.6786 C67.1418,17.5436 64.4358,15.7406 61.8038,15.7406 C60.4448,15.7406 59.4328,16.0646 58.5128,16.7046 C57.7898,17.1406 57.1368,17.8106 56.5908,18.7006 L56.4918,18.7006 C55.8198,16.9126 54.1768,15.7406 52.0668,15.7406 C49.3438,15.7406 47.9018,17.2136 47.1398,18.4726 L47.0278,18.4726 L46.8368,16.1006 L43.4018,16.1006 C43.4608,17.4656 43.5098,19.0336 43.5098,20.8786 L43.5098,32.1046 Z" id="Fill-217" fill="#FFFFFE"></path>
            </g>
            <polygon id="Fill-220" fill="#00A3DA" points="70.491 48.619 118.962 48.619 118.962 0.146 70.491 0.146"></polygon>
            <path d="M78.3955,5.6182 L97.8315,5.6182 C105.6985,5.6182 111.0205,7.9322 111.0205,14.9262 C111.0205,18.6062 108.9955,21.1832 105.4095,22.7612 C110.4405,24.0752 112.9855,27.5982 112.9855,32.2782 C112.9855,39.9022 105.8725,43.1632 98.4105,43.1632 L78.3955,43.1632 L78.3955,5.6182 Z M87.4775,20.8142 L96.6735,20.8142 C99.8565,20.8142 102.2275,19.5002 102.2275,16.3452 C102.2275,12.7692 99.2195,12.0332 95.9795,12.0332 L87.4775,12.0332 L87.4775,20.8142 Z M87.4775,36.7472 L97.1945,36.7472 C100.7805,36.7472 103.9055,35.6962 103.9055,31.8052 C103.9055,27.9672 101.2445,26.4412 97.3695,26.4412 L87.4775,26.4412 L87.4775,36.7472 Z" id="Fill-222" fill="#FFFFFE"></path>
        </g>
    </g>
</svg>