<?xml version="1.0" encoding="UTF-8"?>
<svg width="119px" height="50px" viewBox="0 0 119 50" version="1.1" xmlns="http://www.w3.org/2000/svg" xmlns:xlink="http://www.w3.org/1999/xlink">
    <!-- Generator: Sketch 64 (93537) - https://sketch.com -->
    <title>Group 9</title>
    <desc>Created with Sketch.</desc>
    <defs>
        <polygon id="path-1" points="0.2634 0.011 69.9404 0.011 69.9404 48.483 0.2634 48.483"></polygon>
    </defs>
    <g id="Page-1" stroke="none" stroke-width="1" fill="none" fill-rule="evenodd">
        <g id="Group-9" transform="translate(0.000000, 0.550000)">
            <g id="Group-235">
                <g id="Group-226">
                    <mask id="mask-2" fill="white">
                        <use xlink:href="#path-1"></use>
                    </mask>
                    <g id="Clip-225"></g>
                    <path d="M69.9404,0.0103 L11.9984,0.0103 C5.5174,0.0103 0.2634,5.2643 0.2634,11.7463 L0.2634,36.7473 C0.2634,43.2283 5.5174,48.4833 11.9984,48.4833 L69.9404,48.4833 L69.9404,0.0103 Z" id="Fill-224" fill="#7E7E6B" mask="url(#mask-2)"></path>
                </g>
                <path d="M3.9824,12.9731 L3.9824,15.9641 L1.7114,15.9641 L1.7114,18.9991 L3.9824,18.9991 L3.9824,26.5241 C3.9824,28.6241 4.3614,30.1041 5.2564,31.0231 C6.0194,31.8341 7.2344,32.3381 8.7444,32.3381 C9.9944,32.3381 11.0724,32.1371 11.6694,31.9101 L11.6174,28.8601 C11.1584,28.9871 10.7474,29.0071 10.0174,29.0071 C8.4844,29.0071 7.9474,28.0341 7.9474,26.0541 L7.9474,18.9991 L11.8004,18.9991 L11.8004,15.9641 L7.9474,15.9641 L7.9474,11.8481 L3.9824,12.9731 Z" id="Fill-227" fill="#FFFFFE"></path>
                <path d="M14.8672,31.9683 L18.9062,31.9683 L18.9062,23.6753 L18.9972,22.4453 C19.3742,20.5903 20.7222,19.3763 22.6192,19.3763 L23.8332,19.4843 L23.8332,15.7063 L22.8882,15.6043 C21.1502,15.6043 19.2652,16.7443 18.4692,19.0003 L18.3862,19.0003 L18.2112,15.9643 L14.7242,15.9643 C14.8342,17.3923 14.8672,18.9553 14.8672,21.1183 L14.8672,31.9683 Z" id="Fill-229" fill="#FFFFFE"></path>
                <path d="M34.748,26.3491 L34.648,27.2371 C34.254,28.3951 33.115,29.4481 31.472,29.4481 C30.172,29.4481 29.158,28.7211 29.158,27.1451 C29.158,24.6981 31.893,24.1191 34.748,24.1531 L34.748,26.3491 Z M38.703,22.3771 C38.703,18.8581 37.213,15.6081 32.09,15.6081 C29.559,15.6081 27.498,16.2941 26.304,17.0071 L27.088,19.6451 C28.172,18.9521 29.813,18.4611 31.394,18.4611 C34.222,18.4611 34.648,20.2061 34.648,21.2561 L34.648,21.5231 C28.75,21.4791 25.153,23.5501 25.153,27.5621 C25.153,30.0021 26.971,32.3321 30.172,32.3321 C32.295,32.3321 33.97,31.4451 34.906,30.2011 L35.024,30.2011 L35.301,31.9741 L38.963,31.9741 C38.762,30.9911 38.703,29.5741 38.703,28.1361 L38.703,22.3771 Z" id="Fill-231" fill="#FFFFFE"></path>
                <path d="M42.9609,31.9683 L46.9179,31.9683 L46.9179,22.5113 L47.1199,21.1513 C47.5219,20.0723 48.5259,18.8973 50.0349,18.8973 C51.9119,18.8973 52.8179,20.4813 52.8179,22.7023 L52.8179,31.9683 L56.7569,31.9683 L56.7569,22.3773 L56.9569,21.0473 C57.3849,19.8963 58.3909,18.8973 59.7789,18.8973 C61.7239,18.8973 62.6479,20.4813 62.6479,23.1303 L62.6479,31.9683 L66.5929,31.9683 L66.5929,22.5423 C66.5929,17.4073 63.8869,15.6043 61.2549,15.6043 C59.8969,15.6043 58.8839,15.9283 57.9639,16.5683 C57.2399,17.0043 56.5879,17.6743 56.0429,18.5643 L55.9429,18.5643 C55.2719,16.7763 53.6279,15.6043 51.5179,15.6043 C48.7949,15.6043 47.3539,17.0773 46.5909,18.3363 L46.4809,18.3363 L46.2879,15.9643 L42.8539,15.9643 C42.9119,17.3293 42.9609,18.8973 42.9609,20.7423 L42.9609,31.9683 Z" id="Fill-233" fill="#FFFFFE"></path>
            </g>
            <g id="Group-239" transform="translate(69.000000, 0.000000)">
                <polygon id="Fill-236" fill="#7F78AB" points="0.942 48.483 49.413 48.483 49.413 0.011 0.942 0.011"></polygon>
                <polygon id="Fill-238" fill="#FFFFFE" points="9.3574 5.4819 40.2454 5.4819 40.2454 12.4229 18.4384 12.4229 18.4384 20.4679 38.4524 20.4679 38.4524 26.8839 18.4384 26.8839 18.4384 36.0859 40.7084 36.0859 40.7084 43.0269 9.3574 43.0269"></polygon>
            </g>
        </g>
    </g>
</svg>